# xmcd CD database file
#
# Track frame offsets:
#	150
#	22385
#	51354
#	73908
#	99998
#
# Disc length: 1578 seconds
#
# Revision: 0
# Processed by: cddbd v1.5.1PL2 Copyright (c) Steve Scherf et al.
# Submitted via: CDex 1.51
#
DISCID=47062805
DTITLE=Tool - 1993-08-29-Lowlands Festival-Dronten, The Netherlands
DYEAR=1993
DGENRE=Blues
TTITLE0=Prison Sex
TTITLE1=Bottom
TTITLE2=Sober
TTITLE3=Opiate
TTITLE4=Flood
EXTD=YEAR: 1993
EXTT0=
EXTT1=
EXTT2=
EXTT3=
EXTT4=
PLAYORDER=
